# xmcd CD database file
#
# Track frame offsets:
#	150
#	14107
#	25635
#	38255
#	45850
#	57247
#	70982
#	84000
#	99792
#	116150
#	133185
#	148617
#	165160
#	175377
#	191659
#	206115
#
# Disc length: 2853 seconds
#
# Revision: 1
# Processed by: cddbd v1.5.1PL0 Copyright (c) Steve Scherf et al.
# Submitted via: CDex 1.51
#
DISCID=cc0b2310
DTITLE=Diversen Artiesten - Het Smurfenfeest
DYEAR=1900
DGENRE=Kinder
TTITLE0=Het circus begint
TTITLE1=Smurfenfeest
TTITLE2=De blauwe ballon
TTITLE3=Vadertje smurf had een boerderij
TTITLE4=De stoute smurfen
TTITLE5=Rock smurfen
TTITLE6=De speelgoed winkel
TTITLE7=De grote smurfvakantie
TTITLE8=Ruimte smurfen
TTITLE9=Een smurfendag
TTITLE10=Smurfen voetbalclub
TTITLE11=Als een naar een feest toe gaat
TTITLE12='t Smurfen orkest
TTITLE13=Smurfenpret
TTITLE14=In de smurfen discotheek
TTITLE15=Slaapliedje
EXTD=
EXTT0=
EXTT1=
EXTT2=
EXTT3=
EXTT4=
EXTT5=
EXTT6=
EXTT7=
EXTT8=
EXTT9=
EXTT10=
EXTT11=
EXTT12=
EXTT13=
EXTT14=
EXTT15=
PLAYORDER=
